<?xml version="1.0" encoding="UTF-8" standalone="no"?>
<svg
   xmlns:dc="http://purl.org/dc/elements/1.1/"
   xmlns:cc="http://creativecommons.org/ns#"
   xmlns:rdf="http://www.w3.org/1999/02/22-rdf-syntax-ns#"
   xmlns:svg="http://www.w3.org/2000/svg"
   xmlns="http://www.w3.org/2000/svg"
   viewBox="0 0 751.67999 215.57333"
   height="215.57333"
   width="751.67999"
   xml:space="preserve"
   id="svg2"
   version="1.1"><metadata
     id="metadata8"><rdf:RDF><cc:Work
         rdf:about=""><dc:format>image/svg+xml</dc:format><dc:type
           rdf:resource="http://purl.org/dc/dcmitype/StillImage" /></cc:Work></rdf:RDF></metadata><defs
     id="defs6" /><g
     transform="matrix(1.3333333,0,0,-1.3333333,0,215.57333)"
     id="g10"><g
       transform="scale(0.1)"
       id="g12"><path
         id="path14"
         style="fill:#ffffff;fill-opacity:1;fill-rule:nonzero;stroke:none"
         d="M 1140.57,308.148 V 876.43 c 0,28.015 -24.02,52.031 -52.03,52.031 H 816.406 V 304.148 H 572.285 V 876.43 c 0,28.015 -24.012,52.031 -52.027,52.031 H 248.125 V 304.148 H 0 v 848.422 h 248.125 v -48.02 l 388.188,44.02 c 24.015,4 44.023,4 68.039,4 40.019,4 76.035,-12 96.043,-44.02 l 404.195,40.02 c 24.02,4 44.03,4 68.04,4 72.03,0 112.06,-40.02 112.06,-104.05 V 304.148 h -244.12 v 4" /><path
         id="path16"
         style="fill:#ffffff;fill-opacity:1;fill-rule:nonzero;stroke:none"
         d="M 3573.76,304.148 V 436.211 L 4030,968.48 h -428.22 v 180.09 h 744.37 V 1016.5 L 3881.92,484.238 h 468.23 v -180.09 h -776.39" /><path
         id="path18"
         style="fill:#ffffff;fill-opacity:1;fill-rule:nonzero;stroke:none"
         d="M 4914.43,0 H 4654.3 l 136.07,316.16 -332.16,836.41 h 264.13 l 196.09,-560.281 196.1,560.281 h 260.13 L 4914.43,0" /><path
         id="path20"
         style="fill:#ffffff;fill-opacity:1;fill-rule:nonzero;stroke:none"
         d="m 2217.09,612.301 c 0,-64.02 -52.02,-116.063 -116.05,-116.063 h -340.17 v 344.176 c 0,64.031 52.03,116.059 116.06,116.059 v 0 h 340.16 z m -344.17,540.269 c -172.08,0 -312.15,-140.07 -312.15,-312.156 V 300.148 h 540.27 c 172.09,0 312.15,140.071 312.15,312.153 v 540.269 h -540.27" /><path
         id="path22"
         style="fill:#94dacd;fill-opacity:1;fill-rule:nonzero;stroke:none"
         d="m 2097.04,648.324 v 184.09 h -184.1 c -16,0 -28.01,-12.012 -28.01,-28.016 V 616.301 h 184.09 c 12.01,0 28.02,12.012 28.02,32.023 0,-4.004 0,-4.004 0,0" /><path
         id="path24"
         style="fill:#ffffff;fill-opacity:1;fill-rule:nonzero;stroke:none"
         d="m 3165.56,964.477 h -264.13 c -56.02,0 -72.03,-16.004 -72.03,-68.032 V 560.281 c 0,-48.031 16.01,-64.043 60.03,-64.043 12,0 28.02,0 40.02,0 l 236.11,20.012 z m 0,-656.329 v 44.024 l -316.15,-44.024 c -24.01,-4 -52.03,-8 -76.04,-8 -120.06,0 -188.09,64.032 -188.09,180.09 V 968.48 c 0,128.06 60.03,184.09 200.1,184.09 h 376.19 v 464.23 h 244.12 V 308.148 h -240.13" /><path
         id="path26"
         style="fill:#ffffff;fill-opacity:1;fill-rule:nonzero;stroke:none"
         d="m 5534.43,1060.28 c 4.14,0 8.06,0.14 11.75,0.41 3.69,0.27 6.97,1.03 9.85,2.29 2.88,1.26 5.18,3.2 6.89,5.81 1.7,2.6 2.56,6.25 2.56,10.93 0,3.96 -0.77,7.11 -2.29,9.46 -1.53,2.33 -3.52,4.13 -5.94,5.39 -2.43,1.26 -5.22,2.12 -8.38,2.57 -3.14,0.45 -6.25,0.67 -9.3,0.67 h -24.31 v -37.53 z m 8.1,52.38 c 14.04,0 24.44,-2.79 31.19,-8.37 6.74,-5.58 10.12,-14.04 10.12,-25.38 0,-10.62 -2.97,-18.4 -8.9,-23.36 -5.95,-4.94 -13.33,-7.87 -22.15,-8.77 l 33.75,-52.108 h -19.71 l -32.13,50.758 h -19.44 v -50.758 h -18.36 v 117.988 z m -83.3,-93.01 c 4.23,-10.54 10.08,-19.67 17.55,-27.412 7.47,-7.738 16.29,-13.812 26.47,-18.222 10.16,-4.414 21.19,-6.614 33.07,-6.614 11.7,0 22.59,2.2 32.67,6.614 10.08,4.41 18.86,10.484 26.33,18.222 7.47,7.742 13.32,16.872 17.55,27.412 4.22,10.53 6.34,22 6.34,34.42 0,12.06 -2.12,23.31 -6.34,33.75 -4.23,10.44 -10.08,19.48 -17.55,27.14 -7.47,7.65 -16.25,13.68 -26.33,18.09 -10.08,4.4 -20.97,6.61 -32.67,6.61 -11.88,0 -22.91,-2.21 -33.07,-6.61 -10.18,-4.41 -19,-10.44 -26.47,-18.09 -7.47,-7.66 -13.32,-16.7 -17.55,-27.14 -4.23,-10.44 -6.33,-21.69 -6.33,-33.75 0,-12.42 2.1,-23.89 6.33,-34.42 z m -16.6,74.12 c 5.4,12.23 12.74,22.85 22,31.86 9.27,8.99 20.07,16.06 32.41,21.19 12.32,5.13 25.42,7.69 39.28,7.69 13.86,0 26.91,-2.56 39.15,-7.69 12.24,-5.13 22.95,-12.2 32.13,-21.19 9.18,-9.01 16.47,-19.63 21.87,-31.86 5.4,-12.25 8.1,-25.48 8.1,-39.7 0,-14.58 -2.7,-28.03 -8.1,-40.36 -5.4,-12.33 -12.69,-23.046 -21.87,-32.136 -9.18,-9.09 -19.89,-16.156 -32.13,-21.187 -12.24,-5.039 -25.29,-7.567 -39.15,-7.567 -13.86,0 -26.96,2.528 -39.28,7.567 -12.34,5.031 -23.14,12.097 -32.41,21.187 -9.26,9.09 -16.6,19.806 -22,32.136 -5.4,12.33 -8.09,25.78 -8.09,40.36 0,14.22 2.69,27.45 8.09,39.7" /></g></g></svg>